<?xml version="1.0" encoding="UTF-8"?>
<svg version="1.1" xmlns="http://www.w3.org/2000/svg" width="726" height="724">
<path d="M0 0 C1.04283819 0.00134138 1.04283819 0.00134138 2.10674381 0.00270987 C21.03557095 0.02826704 39.96417629 0.09292247 58.89279842 0.18390274 C67.27041467 0.22374779 75.64793363 0.25617994 84.02563477 0.27099609 C91.44871279 0.28413878 98.87159188 0.31135955 106.29455763 0.35461307 C110.18333127 0.37683352 114.07186392 0.39293469 117.96070671 0.39188385 C165.90372908 0.39318884 212.42517488 10.66988381 252 39 C253.00675781 39.72058594 254.01351562 40.44117188 255.05078125 41.18359375 C260.84021782 45.42819972 266.30081288 49.8920186 271.57421875 54.76171875 C273.18160962 56.24486685 274.80928227 57.70635289 276.45703125 59.14453125 C312.01488943 90.22265926 335.28285819 135.69714913 343 182 C343.33 125.24 343.66 68.48 344 10 C344.33 10 344.66 10 345 10 C345 200.74 345 391.48 345 588 C344.67 588 344.34 588 344 588 C343.67 574.47 343.34 560.94 343 547 C342.175 550.50625 341.35 554.0125 340.5 557.625 C331.6677364 593.49550525 315.32777139 626.36962681 290.2109375 653.6015625 C288.71609211 655.22317923 287.24248089 656.86458894 285.7890625 658.5234375 C265.78941279 681.3300556 238.66365094 698.88509349 210.6875 710.25 C209.74148926 710.63800781 208.79547852 711.02601563 207.82080078 711.42578125 C197.68004898 715.40850288 187.61983492 717.96576145 177 721 C241.845 721.495 241.845 721.495 308 722 C308 722.33 308 722.66 308 723 C92.84 723 -122.32 723 -344 723 C-344 722.67 -344 722.34 -344 722 C-277.67 721.505 -277.67 721.505 -210 721 C-220.395 718.03 -220.395 718.03 -231 715 C-254.58648224 706.83544845 -276.44635791 695.59834696 -296 680 C-296.96679688 679.236875 -297.93359375 678.47375 -298.9296875 677.6875 C-304.27682811 673.39819479 -309.26936174 668.95710498 -314 664 C-314.78375 663.21625 -315.5675 662.4325 -316.375 661.625 C-317.24125 660.75875 -318.1075 659.8925 -319 659 C-319.88171875 658.20529297 -319.88171875 658.20529297 -320.78125 657.39453125 C-333.02355356 645.95163184 -342.90283004 631.35727134 -351.01904297 616.75927734 C-351.99355624 615.01155643 -352.99868213 613.28102082 -354.00390625 611.55078125 C-364.7134299 592.7555411 -371.14224535 571.9832423 -376 551 C-376.1973877 550.14986328 -376.39477539 549.29972656 -376.59814453 548.42382812 C-380.3055896 530.51076328 -379.14679668 511.55959033 -379.13072467 493.37455392 C-379.1284359 489.53399755 -379.13196727 485.69344549 -379.13470459 481.85289001 C-379.13912447 474.35354351 -379.13820275 466.85420707 -379.13529195 459.35486019 C-379.13302296 453.25370825 -379.13273184 447.1525591 -379.13381577 441.05140686 C-379.133969 440.17925318 -379.13412223 439.3070995 -379.13428011 438.40851691 C-379.13459987 436.63611869 -379.13492408 434.86372047 -379.1352527 433.09132224 C-379.13809641 416.51627879 -379.1348379 399.9412409 -379.12945233 383.36619836 C-379.12498531 369.17951358 -379.12576155 354.99283698 -379.13037109 340.80615234 C-379.13573648 324.28575808 -379.13782183 307.76536867 -379.13475883 291.24497366 C-379.13444032 289.47951349 -379.13412595 287.71405331 -379.13381577 285.94859314 C-379.13366149 285.08021278 -379.13350721 284.21183242 -379.13334826 283.31713751 C-379.132489 277.23144843 -379.13393321 271.14576245 -379.13629532 265.06007385 C-379.13911539 257.63203313 -379.13830885 250.20400296 -379.13301457 242.77596343 C-379.13040714 238.99445492 -379.12932161 235.21296394 -379.13266373 231.43145561 C-379.16617629 189.94248868 -379.16617629 189.94248868 -376 175.5625 C-375.6762439 174.07061157 -375.6762439 174.07061157 -375.34594727 172.54858398 C-362.44210137 115.99924774 -328.51495457 65.66259968 -279.40966797 34.34814453 C-245.1633838 13.35807173 -206.57489561 0.75012463 -166.22900391 0.68115234 C-164.83354639 0.6718149 -163.43809427 0.66164085 -162.04264832 0.65071106 C-158.29970807 0.62373696 -154.55680485 0.60834489 -150.81379366 0.59528303 C-146.84321849 0.5794065 -142.87271465 0.55266826 -138.90219116 0.5272522 C-132.21997267 0.48593179 -125.5377494 0.45139822 -118.85546875 0.421875 C-109.55663605 0.38079038 -100.2578986 0.32805482 -90.95914197 0.27259517 C-60.6392751 0.09318291 -30.32045436 -0.03926608 0 0 Z " fill="#12329A" transform="translate(381,1)"/>
<path d="M0 0 C1.15304984 -0.00644889 2.30609969 -0.01289778 3.49409044 -0.0195421 C5.37987241 -0.01489629 5.37987241 -0.01489629 7.30375099 -0.01015663 C8.66028967 -0.01389489 10.0168262 -0.01849711 11.37335932 -0.02388728 C15.09550088 -0.03611085 18.81755252 -0.03585758 22.53970957 -0.03349853 C26.55616863 -0.0330902 30.57259893 -0.04413094 34.58904457 -0.05361366 C42.4556548 -0.07022065 50.32223506 -0.07572306 58.18886136 -0.07683842 C64.58310528 -0.07778895 70.97733932 -0.08189949 77.37158012 -0.08823967 C95.50165779 -0.10585055 113.63171179 -0.11507867 131.76179807 -0.11357872 C133.22763908 -0.11345885 133.22763908 -0.11345885 134.72309303 -0.11333656 C135.7015138 -0.1132548 136.67993457 -0.11317304 137.68800445 -0.1130888 C153.54788194 -0.11227574 169.40766449 -0.13141884 185.26751451 -0.1596133 C201.55348859 -0.18833681 217.83941635 -0.20215391 234.1254164 -0.20042574 C243.26833075 -0.1997617 252.41114555 -0.20526031 261.55403709 -0.22678185 C269.33769363 -0.24498654 277.12120547 -0.24934678 284.90487407 -0.235763 C288.87553064 -0.22922998 292.84590956 -0.22912803 296.81653976 -0.2464695 C300.45358688 -0.26219064 304.090136 -0.25934689 307.7271709 -0.24190123 C309.66156609 -0.23737722 311.59597668 -0.25249617 313.53031194 -0.26838052 C321.6258527 -0.20409519 326.80332001 0.90657475 333.3178196 5.93305016 C333.83860085 6.47316734 334.3593821 7.01328453 334.8959446 7.56976891 C335.42703835 8.10215172 335.9581321 8.63453453 336.5053196 9.18305016 C341.98453532 16.11034432 343.66037338 23.26268737 345.6459446 31.75726891 C346.25714197 34.2874058 346.86911333 36.81735587 347.4818821 39.34711266 C347.77030983 40.5509359 348.05873756 41.75475914 348.35590553 42.99506187 C349.55119031 47.93059808 350.86761144 52.82777804 352.1928196 57.72992516 C353.31991991 61.90112018 354.42234922 66.07849155 355.5209446 70.25726891 C355.72936989 71.04980064 355.93779518 71.84233238 356.15253639 72.65888023 C359.09019255 83.83974396 362.00152842 95.02749427 364.91645241 106.21430016 C367.68294745 116.83032942 370.45283243 127.44536497 373.25165749 138.0529232 C374.38151667 142.33882871 375.50277336 146.62682804 376.6146946 150.91742516 C378.84836172 159.53043984 381.08977932 168.13518993 383.5209446 176.69476891 C386.31427358 186.56135928 388.74684553 196.52140272 391.20405006 206.47577477 C393.12869653 214.26215803 395.12893403 222.0215825 397.21064186 229.76776695 C398.53108584 234.69418453 399.80591891 239.63209024 401.0834446 244.56976891 C402.85075319 251.38144462 404.66654278 258.173777 406.5834446 264.94476891 C408.79865728 272.8584825 410.90397602 280.80040256 412.9584446 288.75726891 C413.27289528 289.93893639 413.58734596 291.12060387 413.91132545 292.33807945 C417.86637198 307.86062113 417.86637198 307.86062113 415.0209446 315.13226891 C411.71302213 318.8812477 408.06210173 321.32781258 403.1459446 322.25726891 C401.55737593 322.34481326 399.96557265 322.38104387 398.37459373 322.38031673 C397.41217915 322.38230778 396.44976457 322.38429883 395.45818591 322.38635021 C394.40371744 322.38343737 393.34924898 322.38052453 392.26282692 322.37752342 C391.14051587 322.37837785 390.01820483 322.37923227 388.86188436 322.38011259 C385.08773994 322.38176441 381.31363963 322.37625084 377.53949928 322.3707943 C374.83943519 322.37051233 372.13937383 322.37062627 369.43931007 322.3712368 C363.61931588 322.37176135 357.79933289 322.36862176 351.97934151 322.36299896 C343.56459423 322.35487461 335.14985238 322.35226778 326.73510161 322.35101097 C313.0829837 322.34882193 299.43087176 322.34216582 285.7787571 322.33270836 C272.51638761 322.32353044 259.25401974 322.31645146 245.99164772 322.31220055 C245.17426183 322.31193782 244.35687593 322.3116751 243.51472077 322.31140441 C239.41416779 322.31009938 235.3136148 322.30883567 231.21306181 322.30759251 C197.19068507 322.29722449 163.16831557 322.27961017 129.1459446 322.25726891 C130.56020534 318.94152976 131.9767862 315.62678649 133.39374733 312.31220055 C133.78919495 311.38499451 134.18464256 310.45778847 134.59207344 309.50248528 C137.9823932 301.57682697 141.54105252 293.73806427 145.17402077 285.92130089 C150.95717456 273.47342747 156.62932917 260.9821133 162.16434669 248.42203331 C169.57099341 231.6162103 177.33917458 215.0006776 185.2262516 198.41580772 C195.80244241 176.15691427 205.90110582 153.66785373 216.1459446 131.25726891 C185.1259446 131.25726891 154.1059446 131.25726891 122.1459446 131.25726891 C112.45095334 152.35813222 102.7570115 173.45844049 93.11078835 194.58148766 C90.46318281 200.37854952 87.80915817 206.172599 85.14985085 211.96430016 C77.14723353 229.40280302 69.26648544 246.89085396 61.50187111 264.43669701 C61.19492317 265.13029823 60.88797523 265.82389946 60.57172585 266.53851891 C60.12616844 267.54550583 60.12616844 267.54550583 59.67160988 268.57283592 C57.20013678 274.15125306 54.68730692 279.71032108 52.1459446 285.25726891 C50.10461942 281.41748229 49.19190142 277.54222491 48.2709446 273.31976891 C47.07782209 268.04098675 45.78881087 262.85621491 44.1459446 257.69476891 C41.34608227 248.89051432 39.21015853 239.9181236 37.1459446 230.91742516 C35.6819114 224.54348094 34.21070466 218.23920284 32.2084446 212.00726891 C30.11422297 205.4535871 28.56252638 198.80820189 26.99946022 192.11322594 C25.52545212 185.81037632 23.93482361 179.55932706 22.2396946 173.31195641 C20.85836608 168.22025486 19.53655188 163.1130571 18.2084446 158.00726891 C16.36346592 150.9214896 14.51266328 143.83735289 12.6459446 136.75726891 C10.54212957 128.77652003 8.45759771 120.79082097 6.37641335 112.80414391 C4.80761329 106.7863878 3.23112557 100.77072963 1.6459446 94.75726891 C-0.19853229 87.7601566 -2.02924025 80.7595339 -3.8540554 73.75726891 C-4.85371974 69.92384795 -5.85377877 66.09053013 -6.8540554 62.25726891 C-7.0706179 61.42695152 -7.2871804 60.59663414 -7.5103054 59.74115562 C-7.92279074 58.16114344 -8.33594417 56.5813055 -8.74980736 55.00165367 C-9.15099439 53.47001073 -9.55058492 51.93794868 -9.94853783 50.40546227 C-11.06933941 46.11999121 -12.25268201 41.85973427 -13.49858665 37.60883141 C-20.34941356 14.0357949 -20.34941356 14.0357949 -16.7056179 7.05805016 C-12.36943914 1.40266357 -6.9951559 0.00992651 0 0 Z " fill="#F9F9F9" transform="translate(164.8540554046631,150.74273109436035)"/>
<path d="M0 0 C1.70209877 0.00333092 1.70209877 0.00333092 3.43858337 0.00672913 C4.71983597 0.00680466 6.00108856 0.00688019 7.32116699 0.00695801 C8.73001646 0.01206542 10.13886554 0.01728143 11.54771423 0.02259827 C12.98118033 0.02446249 14.41464706 0.02588637 15.84811401 0.02688599 C19.62765755 0.03071079 23.40716288 0.04054075 27.18669128 0.05158997 C31.04075097 0.06180489 34.8948168 0.06638378 38.74888611 0.07142639 C46.31596085 0.08216306 53.88300407 0.09923903 61.45005798 0.12025452 C60.13341305 4.86621044 58.6372664 9.17343201 56.51255798 13.62025452 C56.21244812 14.25350647 55.91233826 14.88675842 55.60313416 15.53919983 C53.74269021 19.45543665 51.85246815 23.35728571 49.96568298 27.26087952 C43.78318239 40.077788 37.90230354 53.00185066 32.15318298 66.01869202 C28.24368854 74.86466059 24.15976435 83.61800005 19.92271423 92.31166077 C13.50128604 105.52275129 7.4054697 118.84271212 1.47688293 132.28016663 C-2.88846998 142.17368169 -7.32602068 152.02010091 -11.92494202 161.80775452 C-19.76928201 178.54954087 -27.16072502 195.49061595 -34.5191803 212.45033264 C-35.77965045 215.35400409 -37.04720499 218.25425684 -38.32679749 221.14955139 C-39.79122561 224.4668287 -41.23643306 227.79167709 -42.67494202 231.12025452 C-43.08252747 232.03129944 -43.49011292 232.94234436 -43.91004944 233.8809967 C-46.22566728 239.32595456 -47.43142808 244.18354482 -46.54994202 250.12025452 C-45.17997044 252.99172446 -45.17997044 252.99172446 -43.54994202 255.12025452 C-43.54994202 255.78025452 -43.54994202 256.44025452 -43.54994202 257.12025452 C-38.19282132 259.8980208 -34.08535109 261.37003732 -27.9705658 261.37181091 C-27.3232091 261.37478105 -26.6758524 261.37775119 -26.00887883 261.38081133 C-23.8478336 261.38842721 -21.6870621 261.38196749 -19.52601624 261.37562561 C-17.97351396 261.37837654 -16.42101309 261.38205706 -14.86851501 261.38659668 C-11.52966789 261.39469947 -8.1908877 261.39687952 -4.85203171 261.39464951 C0.42522401 261.39181562 5.70234596 261.4061698 10.97956848 261.42362976 C25.98419706 261.47065388 40.98881601 261.49460868 55.99351501 261.50111389 C64.28372806 261.50485977 72.5737893 261.52284768 80.86393726 261.55620825 C86.11261398 261.57646385 91.3609003 261.57877288 96.60960031 261.56792808 C99.87008756 261.5653274 103.13034574 261.57929253 106.39077377 261.59800911 C107.90531328 261.60334679 109.41989457 261.60180748 110.93441772 261.59297371 C112.99837986 261.58190364 115.06078298 261.59522063 117.12464905 261.61473083 C118.28053591 261.61582037 119.43642277 261.6169099 120.6273365 261.61803246 C123.45005798 262.12025452 123.45005798 262.12025452 125.25872612 263.95849037 C126.80838259 266.77046233 127.99202231 269.62053346 129.13755798 272.62025452 C129.57455017 273.74431702 130.01154236 274.86837952 130.46177673 276.02650452 C131.45005798 279.12025452 131.45005798 279.12025452 131.45005798 283.12025452 C100.32370361 283.30270787 69.19749048 283.44430689 38.07072841 283.52877715 C34.39695913 283.53878295 30.72319091 283.54913752 27.04942322 283.55970764 C26.31803415 283.56180613 25.58664508 283.56390461 24.83309271 283.56606668 C12.98639605 283.6008889 1.14000958 283.66397152 -10.706503 283.73747689 C-22.85979115 283.81225748 -35.01291673 283.85671792 -47.16642553 283.87296247 C-54.66758008 283.88394641 -62.16785798 283.91865025 -69.66874269 283.98358625 C-75.41798106 284.03082631 -81.16665621 284.03590425 -86.91604996 284.02511597 C-89.27640119 284.02732163 -91.6367848 284.04329879 -93.99693871 284.07389832 C-97.21503197 284.11358367 -100.42934515 284.10418434 -103.64752197 284.08229065 C-104.5862401 284.10559338 -105.52495822 284.12889611 -106.49212235 284.15290499 C-109.08351786 284.10509706 -111.10650814 283.98919645 -113.54994202 283.12025452 C-115.85794425 280.71743859 -117.22522464 278.15698077 -118.54994202 275.12025452 C-119.19962952 273.66619202 -119.19962952 273.66619202 -119.86244202 272.18275452 C-122.93454462 258.49793384 -115.80192622 245.98386309 -110.23744202 233.80775452 C-109.65155355 232.51408942 -109.06610778 231.22022375 -108.48109436 229.92616272 C-105.07499539 222.40504415 -101.6104053 214.91227148 -98.08900452 207.44447327 C-95.80933502 202.52061859 -93.66128054 197.54255231 -91.51869202 192.55775452 C-88.65848272 186.02047547 -85.58028889 179.57988862 -82.54994202 173.12025452 C-81.40626992 170.6790556 -80.26321424 168.23756828 -79.12025452 165.79603577 C-78.83969208 165.19675262 -78.55912964 164.59746948 -78.27006531 163.98002625 C-73.0622764 152.85339173 -67.8786722 141.71938338 -62.86708069 130.50257874 C-59.95693666 123.99770698 -56.98008713 117.52504513 -53.98744202 111.05775452 C-43.68239823 88.77364085 -33.43706218 66.46486863 -23.50184631 44.01307678 C-20.24094345 36.65111101 -16.9199427 29.32610077 -13.46546936 22.0528717 C-12.35854755 19.71623356 -11.26108997 17.37522287 -10.16322327 15.03431702 C-9.33400609 13.27119744 -8.50458084 11.50817572 -7.67494202 9.74525452 C-7.28089172 8.90478577 -6.88684143 8.06431702 -6.48085022 7.19837952 C-6.11435364 6.42236389 -5.74785706 5.64634827 -5.37025452 4.84681702 C-5.04299377 4.15152893 -4.71573303 3.45624084 -4.3785553 2.73988342 C-3.07958371 0.20088003 -3.00222037 0.14158383 0 0 Z " fill="#F8F8F9" transform="translate(298.54994201660156,294.87974548339844)"/>
</svg>
